<svg width="16" height="16" viewBox="0 0 16 16" fill="none" xmlns="http://www.w3.org/2000/svg">
<g clip-path="url(#clip0_1051_3757)">
<path fill-rule="evenodd" clip-rule="evenodd" d="M8 0C12.4218 0 16 3.57818 16 8C16 12.4218 12.4218 16 8 16C3.57818 16 0 12.4218 0 8C0 3.57818 3.57818 0 8 0ZM1.50303 7.20485C1.71636 7.47636 2.30788 7.82545 3.2097 8.10667C3.56849 8.22303 3.95636 8.32 4.37333 8.39758C4.37333 8.26182 4.37333 8.13576 4.37333 8C4.37333 5.57576 4.8097 3.39394 5.57576 1.92C3.40364 2.79273 1.80364 4.8 1.51273 7.20485H1.50303ZM4.46061 9.90061C3.29697 9.69697 2.28848 9.38667 1.53212 8.99879C1.88121 11.3164 3.45212 13.2364 5.56606 14.08C5.01333 13.0036 4.62545 11.5491 4.46061 9.90061ZM5.95394 10.0945C6.60364 10.1527 7.29212 10.1818 8.0097 10.1818C8.72727 10.1818 9.39636 10.143 10.0655 10.0655C9.73576 12.6836 8.83394 14.5455 8.0097 14.5455C7.18545 14.5455 6.29333 12.6933 5.95394 10.0945ZM10.1818 8.59152C9.49333 8.67879 8.75636 8.73697 8.0097 8.73697C7.26303 8.73697 6.52606 8.69818 5.83758 8.6303C5.83758 8.42667 5.82788 8.22303 5.82788 8.0097C5.82788 4.36364 6.99152 1.46424 8.0097 1.46424C9.02788 1.46424 10.1915 4.36364 10.1915 8.0097C10.1915 8.20364 10.1915 8.39758 10.1818 8.59152ZM11.5588 9.84242C11.3939 11.52 11.0061 12.9939 10.4436 14.08C12.5964 13.217 14.1867 11.2485 14.497 8.87273C13.7212 9.2703 12.7127 9.6097 11.5588 9.84242ZM14.5067 7.17576C14.1673 7.56364 13.0812 8.01939 11.6461 8.33939C11.6461 8.23273 11.6461 8.11636 11.6461 8.0097C11.6461 5.58545 11.2097 3.40364 10.4436 1.9297C12.6061 2.79273 14.2061 4.7903 14.5067 7.17576Z" fill="#0D0802"/>
</g>
<defs>
<clipPath id="clip0_1051_3757">
<rect width="16" height="16" fill="white"/>
</clipPath>
</defs>
</svg>
