<svg width="17" height="17" viewBox="0 0 17 17" fill="none" xmlns="http://www.w3.org/2000/svg">
<g clip-path="url(#clip0_1051_3760)">
<path d="M13.9 2.39C12.36 0.85 10.32 0 8.15 0C6.53 0 4.96 0.47 3.62 1.37C2.28 2.27 1.24 3.53 0.620001 5.03C8.9407e-07 6.52 -0.159999 8.15 0.160001 9.73C0.470001 11.32 1.24 12.76 2.39 13.9C3.53 15.05 4.97 15.82 6.56 16.13C7.08 16.23 7.61 16.29 8.15 16.29C9.22 16.29 10.27 16.08 11.26 15.67C12.76 15.05 14.02 14.01 14.92 12.67C15.82 11.32 16.29 9.76 16.29 8.14C16.29 5.97 15.44 3.93 13.9 2.39ZM12.75 12.75C11.52 13.98 9.89 14.66 8.15 14.67C6.85 14.67 5.6 14.29 4.52 13.57C3.45 12.85 2.61 11.84 2.12 10.64C1.62 9.44 1.5 8.14 1.75 6.87C2 5.6 2.62 4.45 3.53 3.53C4.45 2.62 5.6 2 6.87 1.75C7.29 1.66 7.72 1.62 8.14 1.62C9 1.62 9.84 1.79 10.64 2.12C11.84 2.61 12.85 3.44 13.57 4.52C14.29 5.6 14.67 6.85 14.67 8.14C14.67 9.88 13.99 11.52 12.75 12.75Z" fill="black"/>
<path d="M8.15 11C7.92 11 7.71 11.06 7.52 11.19C7.34 11.31 7.2 11.49 7.11 11.69C7.03 11.89 7.01 12.11 7.05 12.33C7.09 12.55 7.2 12.75 7.36 12.91C7.51 13.06 7.71 13.17 7.93 13.21C8 13.21 8.07 13.23 8.15 13.23C8.29 13.23 8.44 13.2 8.57 13.15C8.78 13.06 8.95 12.92 9.07 12.74C9.2 12.55 9.26 12.34 9.26 12.12C9.26 11.82 9.14 11.53 8.93 11.33C8.72 11.11 8.44 11 8.15 11Z" fill="black"/>
<path d="M8.15 3.67C6.35 3.67 4.89 4.99 4.89 6.62V6.92C4.89 7.13 4.98 7.34 5.13 7.49C5.28 7.64 5.49 7.73 5.7 7.73C5.91 7.73 6.12 7.65 6.27 7.49C6.42 7.34 6.51 7.13 6.51 6.92V6.62C6.51 5.88 7.24 5.29 8.15 5.29C9.06 5.29 9.78 5.88 9.78 6.62C9.78 7.36 9.05 7.94 8.15 7.94C7.93 7.94 7.73 8.03 7.57 8.18C7.42 8.33 7.33 8.54 7.33 8.75V9.37C7.33 9.58 7.42 9.79 7.57 9.94C7.73 10.09 7.93 10.18 8.15 10.18C8.37 10.18 8.57 10.09 8.72 9.94C8.84 9.82 8.92 9.67 8.94 9.47C10.38 9.15 11.4 7.97 11.4 6.62C11.4 4.99 9.94 3.67 8.15 3.67Z" fill="black"/>
</g>
<defs>
<clipPath id="clip0_1051_3760">
<rect width="16.29" height="16.29" fill="white"/>
</clipPath>
</defs>
</svg>
