<svg width="51" height="51" viewBox="0 0 51 51" fill="none" xmlns="http://www.w3.org/2000/svg">
<g clip-path="url(#clip0_496_1983)">
<path d="M25.5499 1.64C25.6299 0.629997 26.0299 -0.0800031 27.2199 0.00999688C28.3999 0.0999969 28.6999 0.859997 28.6199 1.87C28.5399 2.88 28.1399 3.59 26.9499 3.5C25.7699 3.41 25.4699 2.65 25.5499 1.64ZM28.0099 1.83C28.0799 0.859997 27.7799 0.549997 27.1799 0.499997C26.5699 0.449997 26.2299 0.709997 26.1599 1.69C26.0899 2.67 26.3899 2.97 26.9899 3.02C27.5999 3.07 27.9399 2.81 28.0099 1.83Z" fill="#FDF4E2"/>
<path d="M29.1499 3.62L29.9099 0.470003C29.9099 0.470003 29.9499 0.420003 29.9799 0.430003L30.9699 0.670003C32.4199 1.02 32.4599 1.94 32.2799 2.67C32.0999 3.4 31.5699 4.26 30.2199 3.93L29.1999 3.68C29.1999 3.68 29.1499 3.64 29.1599 3.61L29.1499 3.62ZM30.3099 3.47C31.0099 3.64 31.4899 3.34 31.6799 2.53C31.8799 1.72 31.6199 1.32 30.8499 1.14L30.3899 1.03L29.8299 3.36L30.3099 3.48V3.47Z" fill="#FDF4E2"/>
<path d="M32.4999 4.52L33.7099 1.51C33.7099 1.51 33.7499 1.47 33.7799 1.48L35.7999 2.29C35.7999 2.29 35.8399 2.33 35.8299 2.36L35.6899 2.7C35.6899 2.7 35.6499 2.74 35.6199 2.73L34.0999 2.12L33.7599 2.96L34.8099 3.38C34.8099 3.38 34.8499 3.42 34.8399 3.45L34.6999 3.79C34.6999 3.79 34.6599 3.83 34.6299 3.82L33.5799 3.4L33.1999 4.34L34.7199 4.95C34.7199 4.95 34.7599 4.99 34.7499 5.02L34.6099 5.36C34.6099 5.36 34.5699 5.4 34.5399 5.39L32.5199 4.58C32.5199 4.58 32.4799 4.54 32.4899 4.51L32.4999 4.52Z" fill="#FDF4E2"/>
<path d="M35.1899 5.64L36.8399 2.86C36.8399 2.86 36.8899 2.82 36.9199 2.84L37.8499 3.39C37.8499 3.39 37.8799 3.43 37.8799 3.46L37.1899 6.33L37.4099 6.46L38.8499 4.04C38.8499 4.04 38.8999 4 38.9299 4.02L39.2899 4.23C39.2899 4.23 39.3299 4.28 39.3099 4.31L37.6599 7.09C37.6599 7.09 37.6099 7.13 37.5799 7.11L36.6499 6.56C36.6499 6.56 36.6199 6.52 36.6199 6.49L37.3099 3.62L37.0899 3.49L35.6499 5.91C35.6499 5.91 35.5999 5.95 35.5699 5.93L35.2099 5.72C35.2099 5.72 35.1699 5.67 35.1899 5.64Z" fill="#FDF4E2"/>
<path d="M38.2601 7.58C38.2601 7.58 38.2501 7.53 38.2601 7.5L38.5101 7.19C38.5101 7.19 38.5601 7.16 38.5901 7.19C38.6901 7.33 39.0001 7.69 39.3001 7.93C39.7401 8.3 40.0201 8.31 40.2601 8.02C40.5101 7.72 40.2701 7.45 40.0101 7.13C39.6701 6.72 39.3001 6.24 39.7901 5.65C40.2001 5.16 40.7501 5.23 41.4101 5.77C41.6601 5.98 41.9601 6.3 42.0601 6.41C42.0801 6.43 42.0801 6.46 42.0601 6.49L41.8101 6.8C41.8101 6.8 41.7601 6.83 41.7301 6.8C41.6001 6.66 41.3201 6.34 41.0901 6.15C40.6701 5.8 40.4301 5.79 40.2501 6.01C40.0601 6.24 40.1301 6.42 40.4201 6.78C40.8101 7.26 41.2401 7.75 40.7301 8.37C40.2601 8.94 39.6501 8.86 38.9801 8.32C38.6001 8.01 38.3501 7.69 38.2701 7.58H38.2601Z" fill="#FDF4E2"/>
<path d="M40.5699 9.54L42.9299 7.33C42.9299 7.33 42.9899 7.31 43.0099 7.33L44.4899 8.91C44.4899 8.91 44.5099 8.97 44.4899 8.99L44.2199 9.24C44.2199 9.24 44.1599 9.26 44.1399 9.24L43.0199 8.05L42.3599 8.67L43.1299 9.49C43.1299 9.49 43.1499 9.55 43.1299 9.57L42.8599 9.82C42.8599 9.82 42.7999 9.84 42.7799 9.82L42.0099 9L41.2699 9.69L42.3899 10.88C42.3899 10.88 42.4099 10.94 42.3899 10.96L42.1199 11.21C42.1199 11.21 42.0599 11.23 42.0399 11.21L40.5599 9.63C40.5599 9.63 40.5399 9.57 40.5599 9.55L40.5699 9.54Z" fill="#FDF4E2"/>
<path d="M43.28 12.76L46.02 11.03C46.02 11.03 46.08 11.03 46.1 11.05L46.36 11.45C46.36 11.45 46.36 11.51 46.34 11.53L43.96 13.03L44.8 14.36C44.8 14.36 44.8 14.42 44.78 14.44L44.47 14.64C44.47 14.64 44.41 14.65 44.39 14.62L43.26 12.83C43.26 12.83 43.26 12.77 43.28 12.75V12.76Z" fill="#FDF4E2"/>
<path d="M44.6699 15.05L47.5999 13.67C47.5999 13.67 47.6599 13.67 47.6699 13.7L48.5899 15.67C48.5899 15.67 48.5899 15.73 48.5599 15.74L48.2299 15.9C48.2299 15.9 48.1699 15.9 48.1599 15.87L47.4699 14.39L46.6499 14.77L47.1299 15.79C47.1299 15.79 47.1299 15.85 47.0999 15.86L46.7699 16.02C46.7699 16.02 46.7099 16.02 46.6999 15.99L46.2199 14.97L45.3099 15.4L45.9999 16.88C45.9999 16.88 45.9999 16.94 45.9699 16.95L45.6399 17.11C45.6399 17.11 45.5799 17.11 45.5699 17.08L44.6499 15.11C44.6499 15.11 44.6499 15.05 44.6799 15.04L44.6699 15.05Z" fill="#FDF4E2"/>
<path d="M46.04 18.32L48.72 17.47L48.42 16.52C48.42 16.52 48.42 16.46 48.46 16.45L48.81 16.34C48.81 16.34 48.87 16.34 48.88 16.38L49.67 18.86C49.67 18.86 49.67 18.92 49.63 18.93L49.28 19.04C49.28 19.04 49.22 19.04 49.21 19L48.91 18.05L46.23 18.9C46.23 18.9 46.17 18.9 46.16 18.86L46.01 18.4C46.01 18.4 46.01 18.34 46.05 18.33L46.04 18.32Z" fill="#FDF4E2"/>
<path d="M46.6301 20.35L49.8201 19.8C49.8201 19.8 49.8801 19.81 49.8801 19.84L50.1001 21.13C50.2201 21.86 50.0001 22.23 49.4901 22.32C49.1801 22.37 48.9101 22.26 48.7401 22.02L48.6301 22.04C48.5901 22.37 48.3901 22.66 47.9601 22.73C47.4501 22.82 46.9601 22.67 46.8101 21.79L46.5701 20.42C46.5701 20.42 46.5801 20.36 46.6201 20.36L46.6301 20.35ZM47.2801 21.65C47.3501 22.08 47.5501 22.19 47.8801 22.13C48.2101 22.07 48.3501 21.9 48.2801 21.48L48.1401 20.67L47.1501 20.84L47.2901 21.65H47.2801ZM48.7301 21.33C48.7901 21.7 48.9501 21.81 49.2701 21.76C49.5901 21.71 49.6901 21.55 49.6301 21.18L49.5001 20.44L48.6101 20.59L48.7401 21.33H48.7301Z" fill="#FDF4E2"/>
<path d="M47.11 26.2V25.71C47.11 25.71 47.11 25.65 47.14 25.64L48.09 25.34L48.06 24L47.09 23.74C47.09 23.74 47.04 23.71 47.04 23.68V23.2C47.04 23.2 47.05 23.14 47.09 23.15L50.35 24.07C50.35 24.07 50.4 24.1 50.4 24.13L50.42 25.1C50.42 25.1 50.4 25.15 50.38 25.16L47.17 26.25C47.17 26.25 47.1 26.25 47.1 26.21L47.11 26.2ZM48.57 25.19L49.94 24.75V24.49L48.54 24.12L48.57 25.19Z" fill="#FDF4E2"/>
<path d="M47.13 26.72L50.34 27.15C50.34 27.15 50.39 27.18 50.39 27.21L50.25 28.28C50.25 28.28 50.23 28.33 50.2 28.33L47.28 28.82L47.25 29.08L50.04 29.45C50.04 29.45 50.09 29.48 50.09 29.51L50.03 29.93C50.03 29.93 50 29.98 49.97 29.98L46.76 29.55C46.76 29.55 46.71 29.52 46.71 29.49L46.85 28.42C46.85 28.42 46.87 28.37 46.9 28.37L49.82 27.88L49.85 27.62L47.06 27.25C47.06 27.25 47.01 27.22 47.01 27.19L47.07 26.77C47.07 26.77 47.1 26.72 47.13 26.72Z" fill="#FDF4E2"/>
<path d="M46.53 30.45L49.63 31.36C49.63 31.36 49.68 31.4 49.67 31.43L49.06 33.51C49.06 33.51 49.02 33.56 48.99 33.55L48.64 33.45C48.64 33.45 48.59 33.41 48.6 33.38L49.06 31.81L48.19 31.55L47.87 32.63C47.87 32.63 47.83 32.68 47.8 32.67L47.45 32.57C47.45 32.57 47.4 32.53 47.41 32.5L47.73 31.42L46.77 31.14L46.31 32.71C46.31 32.71 46.27 32.76 46.24 32.75L45.89 32.65C45.89 32.65 45.84 32.61 45.85 32.58L46.46 30.5C46.46 30.5 46.5 30.45 46.53 30.46V30.45Z" fill="#FDF4E2"/>
<path d="M46.6301 35.13C46.8901 35.25 46.9601 35.41 46.8201 35.7C46.6801 35.98 46.5101 36.02 46.2501 35.9C45.9901 35.77 45.9201 35.61 46.0501 35.33C46.1801 35.05 46.3601 35.01 46.6201 35.14L46.6301 35.13Z" fill="#FDF4E2"/>
<path d="M45.1601 37.82C45.9801 38.42 46.3701 39.13 45.6701 40.1C44.9701 41.06 44.1701 40.91 43.3501 40.31C42.5301 39.71 42.1401 39 42.8401 38.03C43.5401 37.07 44.3401 37.22 45.1601 37.82ZM43.7001 39.82C44.4901 40.4 44.9101 40.3 45.2701 39.82C45.6301 39.33 45.5901 38.9 44.8001 38.32C44.0101 37.74 43.5901 37.84 43.2301 38.32C42.8701 38.81 42.9101 39.24 43.7001 39.82Z" fill="#FDF4E2"/>
<path d="M41.59 39.84L43.88 42.13C43.88 42.13 43.9 42.19 43.88 42.21L43.16 42.93C42.11 43.98 41.3 43.53 40.77 43C40.24 42.47 39.78 41.57 40.77 40.59L41.51 39.85C41.51 39.85 41.57 39.83 41.59 39.85V39.84ZM41.12 40.91C40.61 41.42 40.62 41.98 41.2 42.57C41.79 43.16 42.26 43.15 42.82 42.59L43.16 42.25L41.47 40.56L41.12 40.91Z" fill="#FDF4E2"/>
<path d="M39.0901 42.22L41.0201 44.82C41.0201 44.82 41.0301 44.88 41.0101 44.9L39.2701 46.2C39.2701 46.2 39.2101 46.21 39.1901 46.19L38.9701 45.89C38.9701 45.89 38.9601 45.83 38.9801 45.81L40.2901 44.84L39.7501 44.11L38.8501 44.78C38.8501 44.78 38.7901 44.79 38.7701 44.77L38.5501 44.47C38.5501 44.47 38.5401 44.41 38.5601 44.39L39.4701 43.72L38.8701 42.91L37.5601 43.89C37.5601 43.89 37.5001 43.9 37.4801 43.88L37.2601 43.58C37.2601 43.58 37.2501 43.52 37.2701 43.5L39.0101 42.2C39.0101 42.2 39.0701 42.19 39.0901 42.21V42.22Z" fill="#FDF4E2"/>
<path d="M36.7099 43.94L38.2199 46.81C38.2199 46.81 38.2199 46.87 38.1999 46.88L37.2399 47.39C37.2399 47.39 37.1899 47.39 37.1699 47.38L35.0699 45.29L34.8399 45.41L36.1599 47.9C36.1599 47.9 36.1599 47.96 36.1399 47.97L35.7699 48.17C35.7699 48.17 35.7099 48.17 35.6899 48.15L34.1799 45.28C34.1799 45.28 34.1799 45.22 34.1999 45.21L35.1599 44.7C35.1599 44.7 35.2099 44.7 35.2399 44.71L37.3299 46.8L37.5599 46.68L36.2399 44.19C36.2399 44.19 36.2399 44.13 36.2599 44.12L36.6299 43.92C36.6299 43.92 36.6899 43.92 36.6999 43.94H36.7099Z" fill="#FDF4E2"/>
<path d="M33.45 45.54C33.45 45.54 33.5 45.56 33.51 45.59L33.64 45.96C33.64 45.96 33.64 46.02 33.6 46.02C33.43 46.03 32.96 46.11 32.6 46.23C32.06 46.42 31.9 46.64 32.02 47C32.14 47.37 32.5 47.31 32.91 47.25C33.44 47.18 34.04 47.11 34.29 47.83C34.5 48.43 34.15 48.87 33.35 49.14C33.05 49.24 32.61 49.33 32.47 49.36C32.44 49.36 32.41 49.36 32.4 49.32L32.27 48.95C32.27 48.95 32.27 48.89 32.31 48.88C32.49 48.84 32.92 48.77 33.2 48.67C33.72 48.49 33.86 48.3 33.76 48.03C33.66 47.75 33.47 47.72 33.02 47.78C32.41 47.86 31.76 47.97 31.5 47.22C31.26 46.53 31.64 46.04 32.46 45.76C32.93 45.6 33.32 45.55 33.46 45.54H33.45Z" fill="#FDF4E2"/>
<path d="M30.55 46.49L31.1901 49.67C31.1901 49.67 31.18 49.73 31.15 49.73L29.0201 50.16C29.0201 50.16 28.9601 50.15 28.9501 50.12L28.88 49.76C28.88 49.76 28.89 49.7 28.92 49.69L30.5201 49.37L30.34 48.48L29.23 48.7C29.23 48.7 29.17 48.69 29.16 48.66L29.09 48.3C29.09 48.3 29.1 48.24 29.13 48.24L30.24 48.02L30.0401 47.03L28.4401 47.35C28.4401 47.35 28.3801 47.34 28.3701 47.31L28.3 46.95C28.3 46.95 28.31 46.89 28.34 46.88L30.47 46.45C30.47 46.45 30.5301 46.46 30.5301 46.49H30.55Z" fill="#FDF4E2"/>
<path d="M26.4099 47.1L26.4599 50.33C26.4599 50.33 26.4399 50.39 26.4099 50.39H25.9299C25.9299 50.39 25.8699 50.38 25.8699 50.34L25.8199 47.53L24.2399 47.56C24.2399 47.56 24.1799 47.54 24.1799 47.51V47.14C24.1799 47.14 24.1999 47.08 24.2299 47.08L26.3399 47.04C26.3399 47.04 26.3999 47.06 26.3999 47.09L26.4099 47.1Z" fill="#FDF4E2"/>
<path d="M23.7001 47.09L23.3301 50.31C23.3301 50.31 23.3001 50.36 23.2701 50.36L21.1101 50.12C21.1101 50.12 21.0601 50.09 21.0601 50.06L21.1001 49.69C21.1001 49.69 21.1301 49.64 21.1601 49.64L22.7801 49.82L22.8801 48.92L21.7601 48.79C21.7601 48.79 21.7101 48.76 21.7101 48.73L21.7501 48.36C21.7501 48.36 21.7801 48.31 21.8101 48.31L22.9301 48.44L23.0401 47.44L21.4201 47.26C21.4201 47.26 21.3701 47.23 21.3701 47.2L21.4101 46.83C21.4101 46.83 21.4401 46.78 21.4701 46.78L23.6301 47.02C23.6301 47.02 23.6801 47.05 23.6801 47.08L23.7001 47.09Z" fill="#FDF4E2"/>
<path d="M20.24 46.55L19.57 49.29L20.54 49.53C20.54 49.53 20.59 49.57 20.58 49.6L20.49 49.96C20.49 49.96 20.45 50.01 20.42 50L17.89 49.38C17.89 49.38 17.84 49.34 17.85 49.31L17.94 48.95C17.94 48.95 17.98 48.9 18.01 48.91L18.98 49.15L19.65 46.41C19.65 46.41 19.69 46.36 19.72 46.37L20.19 46.49C20.19 46.49 20.24 46.53 20.23 46.56L20.24 46.55Z" fill="#FDF4E2"/>
<path d="M18.1901 46L16.9901 49.01C16.9901 49.01 16.9501 49.05 16.9201 49.04L15.7101 48.55C15.0301 48.28 14.8301 47.88 15.0201 47.41C15.1401 47.12 15.3801 46.95 15.6701 46.93L15.7101 46.83C15.4501 46.62 15.3101 46.3 15.4701 45.9C15.6601 45.42 16.0401 45.08 16.8701 45.41L18.1601 45.93C18.1601 45.93 18.2001 45.97 18.1901 46ZM16.2501 47.28C15.9001 47.14 15.7301 47.21 15.6101 47.51C15.4901 47.81 15.5701 47.98 15.9201 48.12L16.6201 48.4L16.9601 47.56L16.2601 47.28H16.2501ZM16.7301 45.87C16.3301 45.71 16.1301 45.82 16.0101 46.13C15.8901 46.44 15.9601 46.65 16.3601 46.81L17.1201 47.12L17.5001 46.18L16.7401 45.87H16.7301Z" fill="#FDF4E2"/>
<path d="M12.9301 43.34L13.3501 43.59C13.3501 43.59 13.3901 43.63 13.3801 43.66L13.1401 44.63L14.3001 45.31L15.0301 44.62C15.0301 44.62 15.0801 44.6 15.1101 44.62L15.5301 44.86C15.5301 44.86 15.5601 44.91 15.5301 44.94L13.0401 47.23C13.0401 47.23 12.9901 47.26 12.9701 47.23L12.1301 46.74C12.1301 46.74 12.1001 46.7 12.1001 46.67L12.8601 43.37C12.8601 43.37 12.9001 43.32 12.9301 43.34ZM13.0201 45.11L12.6701 46.51L12.8901 46.64L13.9401 45.65L13.0201 45.11Z" fill="#FDF4E2"/>
<path d="M12.5099 43.11L10.4699 45.62C10.4699 45.62 10.4199 45.65 10.3899 45.62L9.54991 44.94C9.54991 44.94 9.51991 44.89 9.52991 44.87L10.6299 42.13L10.4299 41.97L8.65991 44.16C8.65991 44.16 8.60991 44.19 8.57991 44.16L8.24991 43.9C8.24991 43.9 8.21991 43.85 8.24991 43.82L10.2899 41.31C10.2899 41.31 10.3399 41.28 10.3699 41.31L11.2099 41.99C11.2099 41.99 11.2399 42.04 11.2299 42.06L10.1299 44.8L10.3299 44.96L12.0999 42.77C12.0999 42.77 12.1499 42.74 12.1799 42.77L12.5099 43.03C12.5099 43.03 12.5399 43.08 12.5099 43.11Z" fill="#FDF4E2"/>
<path d="M9.63003 40.62L7.22003 42.79C7.22003 42.79 7.16003 42.81 7.14003 42.79L5.68003 41.18C5.68003 41.18 5.66003 41.12 5.68003 41.1L5.95003 40.85C5.95003 40.85 6.01003 40.83 6.03003 40.85L7.12003 42.06L7.79003 41.45L7.04003 40.61C7.04003 40.61 7.02003 40.55 7.04003 40.53L7.31003 40.28C7.31003 40.28 7.37003 40.26 7.39003 40.28L8.14003 41.12L8.89003 40.45L7.80003 39.24C7.80003 39.24 7.78003 39.18 7.80003 39.16L8.07003 38.91C8.07003 38.91 8.13003 38.89 8.15003 38.91L9.61003 40.52C9.61003 40.52 9.63003 40.58 9.61003 40.6L9.63003 40.62Z" fill="#FDF4E2"/>
<path d="M5.68997 38.4C4.81997 38.91 4.00997 38.98 3.40997 37.96C2.80997 36.94 3.26997 36.26 4.13997 35.75C5.00997 35.24 5.81997 35.17 6.41997 36.19C7.01997 37.21 6.55997 37.89 5.68997 38.4ZM4.44997 36.27C3.60997 36.76 3.52997 37.18 3.82997 37.71C4.13997 38.23 4.53997 38.37 5.38997 37.88C6.22997 37.39 6.30997 36.97 6.00997 36.44C5.69997 35.92 5.29997 35.78 4.44997 36.27Z" fill="#FDF4E2"/>
<path d="M5.26989 34.33L2.24989 35.5C2.24989 35.5 2.18989 35.5 2.17989 35.47L1.80989 34.52C1.26989 33.13 2.00989 32.57 2.70989 32.3C3.40989 32.03 4.41989 31.97 4.91989 33.27L5.29989 34.25C5.29989 34.25 5.29989 34.31 5.26989 34.32V34.33ZM4.47989 33.46C4.21989 32.79 3.69989 32.57 2.92989 32.87C2.14989 33.17 1.96989 33.61 2.25989 34.34L2.42989 34.79L4.65989 33.93L4.47989 33.47V33.46Z" fill="#FDF4E2"/>
<path d="M4.08988 31.08L0.929883 31.8C0.929883 31.8 0.869883 31.79 0.859883 31.76L0.379883 29.64C0.379883 29.64 0.379883 29.58 0.419883 29.57L0.779883 29.49C0.779883 29.49 0.839883 29.5 0.849883 29.53L1.20988 31.12L2.08988 30.92L1.83988 29.82C1.83988 29.82 1.83988 29.76 1.87988 29.75L2.23988 29.67C2.23988 29.67 2.29988 29.68 2.30988 29.71L2.55988 30.81L3.53988 30.59L3.17988 29C3.17988 29 3.18988 28.94 3.21988 28.93L3.57988 28.85C3.57988 28.85 3.63988 28.85 3.64988 28.89L4.12988 31.01C4.12988 31.01 4.12988 31.07 4.08988 31.08Z" fill="#FDF4E2"/>
<path d="M3.48 28.22L0.25 28.45C0.25 28.45 0.19 28.43 0.19 28.4L0.11 27.32C0.11 27.32 0.12 27.27 0.15 27.26L2.91 26.19L2.89 25.93L0.08 26.13C0.08 26.13 0.02 26.11 0.02 26.08L0 25.65C0 25.65 0.02 25.59 0.05 25.59L3.28 25.36C3.28 25.36 3.34 25.38 3.34 25.41L3.42 26.49C3.42 26.49 3.41 26.54 3.38 26.55L0.62 27.62L0.64 27.88L3.45 27.68C3.45 27.68 3.51 27.7 3.51 27.73L3.54 28.15C3.54 28.15 3.52 28.21 3.49 28.21L3.48 28.22Z" fill="#FDF4E2"/>
<path d="M3.3199 24.59C3.3199 24.59 3.2799 24.63 3.2499 24.63L2.8499 24.6C2.8499 24.6 2.7999 24.57 2.8099 24.54C2.8599 24.38 2.9799 23.92 3.0199 23.54C3.0699 22.97 2.9199 22.73 2.5399 22.7C2.1499 22.67 2.0699 23.01 1.9599 23.42C1.8199 23.94 1.6299 24.51 0.879898 24.45C0.239898 24.4 -0.0101017 23.9 0.0498983 23.06C0.0798983 22.74 0.169898 22.31 0.199898 22.16C0.199898 22.13 0.229898 22.11 0.259898 22.11L0.659898 22.14C0.659898 22.14 0.709898 22.17 0.709898 22.2C0.669898 22.38 0.569898 22.8 0.549898 23.1C0.509898 23.65 0.629898 23.85 0.909898 23.87C1.2099 23.89 1.3099 23.73 1.4399 23.29C1.6099 22.7 1.7599 22.06 2.5599 22.12C3.2899 22.18 3.5799 22.72 3.5199 23.58C3.4799 24.07 3.3699 24.46 3.3199 24.59Z" fill="#FDF4E2"/>
<path d="M3.59999 21.57L0.429994 20.89C0.429994 20.89 0.379994 20.86 0.389994 20.82L0.839994 18.7C0.839994 18.7 0.869994 18.65 0.909994 18.66L1.26999 18.74C1.26999 18.74 1.31999 18.77 1.30999 18.81L0.969994 20.41L1.85999 20.6L2.09999 19.5C2.09999 19.5 2.12999 19.45 2.16999 19.46L2.52999 19.54C2.52999 19.54 2.57999 19.57 2.56999 19.61L2.32999 20.71L3.31999 20.92L3.65999 19.32C3.65999 19.32 3.68999 19.27 3.72999 19.28L4.08999 19.36C4.08999 19.36 4.13999 19.39 4.12999 19.43L3.67999 21.55C3.67999 21.55 3.64999 21.6 3.60999 21.59L3.59999 21.57Z" fill="#FDF4E2"/>
<path d="M4.70007 17.51L1.71007 16.25C1.71007 16.25 1.67007 16.21 1.68007 16.18L1.87007 15.74C1.87007 15.74 1.91007 15.7 1.94007 15.71L4.54007 16.8L5.15007 15.34C5.15007 15.34 5.19007 15.3 5.22007 15.31L5.56007 15.45C5.56007 15.45 5.60007 15.49 5.59007 15.52L4.77007 17.47C4.77007 17.47 4.73007 17.51 4.70007 17.5V17.51Z" fill="#FDF4E2"/>
<path d="M5.78997 15.05L2.99997 13.42C2.99997 13.42 2.95997 13.37 2.97997 13.34L4.06997 11.47C4.06997 11.47 4.11997 11.43 4.14997 11.45L4.46996 11.64C4.46996 11.64 4.50996 11.69 4.48996 11.72L3.66997 13.13L4.44997 13.59L5.01997 12.62C5.01997 12.62 5.06997 12.58 5.09997 12.6L5.41997 12.79C5.41997 12.79 5.45997 12.84 5.43997 12.87L4.86997 13.84L5.73996 14.35L6.55997 12.94C6.55997 12.94 6.60997 12.9 6.63997 12.92L6.95997 13.11C6.95997 13.11 6.99997 13.16 6.97997 13.19L5.88997 15.06C5.88997 15.06 5.83997 15.1 5.80997 15.08L5.78997 15.05Z" fill="#FDF4E2"/>
<path d="M7.68989 12.08L5.45989 10.36L4.84989 11.16C4.84989 11.16 4.79989 11.19 4.76989 11.16L4.47989 10.94C4.47989 10.94 4.44989 10.89 4.47989 10.86L6.06989 8.8C6.06989 8.8 6.11989 8.77 6.14989 8.8L6.43989 9.02C6.43989 9.02 6.46989 9.07 6.43989 9.1L5.82989 9.9L8.05989 11.62C8.05989 11.62 8.08989 11.67 8.05989 11.7L7.75989 12.09C7.75989 12.09 7.70989 12.12 7.67989 12.1L7.68989 12.08Z" fill="#FDF4E2"/>
<path d="M9.02009 10.43L6.74009 8.12C6.74009 8.12 6.72009 8.06 6.74009 8.04L7.67009 7.12C8.19009 6.6 8.63009 6.58 9.00009 6.94C9.22009 7.17 9.28009 7.45 9.18009 7.73L9.26009 7.81C9.56009 7.65 9.90009 7.66 10.2101 7.96C10.5701 8.33 10.7301 8.81 10.0901 9.44L9.10009 10.42C9.10009 10.42 9.04009 10.44 9.02009 10.42V10.43ZM8.62009 8.14C8.89009 7.87 8.89009 7.69 8.66009 7.46C8.43009 7.23 8.25009 7.23 7.98009 7.5L7.45009 8.03L8.09009 8.68L8.63009 8.15L8.62009 8.14ZM9.72009 9.15C10.0301 8.85 10.0101 8.62 9.77009 8.38C9.54009 8.14 9.32009 8.12 9.01009 8.43L8.42009 9.01L9.13009 9.73L9.72009 9.15Z" fill="#FDF4E2"/>
<path d="M13.57 6.67L13.17 6.96C13.17 6.96 13.12 6.98 13.09 6.96L12.3 6.35L11.22 7.14L11.56 8.08C11.56 8.08 11.56 8.14 11.54 8.16L11.15 8.45C11.15 8.45 11.09 8.46 11.07 8.43L9.95996 5.23C9.95996 5.23 9.95996 5.18 9.97996 5.16L10.77 4.58C10.77 4.58 10.82 4.56 10.85 4.58L13.58 6.59C13.58 6.59 13.61 6.65 13.58 6.67H13.57ZM11.91 6.05L10.77 5.17L10.56 5.32L11.05 6.67L11.91 6.04V6.05Z" fill="#FDF4E2"/>
<path d="M13.96 6.37L12.48 3.49C12.48 3.49 12.48 3.43 12.5 3.42L13.46 2.92C13.46 2.92 13.51 2.92 13.53 2.93L15.6 5.04L15.83 4.92L14.54 2.42C14.54 2.42 14.54 2.36 14.56 2.35L14.93 2.16C14.93 2.16 14.99 2.16 15 2.18L16.48 5.06C16.48 5.06 16.48 5.12 16.46 5.13L15.5 5.63C15.5 5.63 15.45 5.63 15.43 5.62L13.36 3.51L13.13 3.63L14.42 6.13C14.42 6.13 14.42 6.19 14.4 6.2L14.03 6.39C14.03 6.39 13.97 6.39 13.96 6.37Z" fill="#FDF4E2"/>
<path d="M17.3901 4.73L16.3701 1.66C16.3701 1.66 16.3701 1.6 16.4101 1.59L18.4701 0.910004C18.4701 0.910004 18.5301 0.910004 18.5401 0.950004L18.6601 1.3C18.6601 1.3 18.6601 1.36 18.6301 1.37L17.0801 1.88L17.3701 2.74L18.4401 2.39C18.4401 2.39 18.5001 2.39 18.5101 2.43L18.6301 2.78C18.6301 2.78 18.6301 2.84 18.5901 2.85L17.5201 3.21L17.8401 4.17L19.3901 3.66C19.3901 3.66 19.4501 3.66 19.4601 3.7L19.5801 4.05C19.5801 4.05 19.5801 4.11 19.5401 4.12L17.4801 4.8C17.4801 4.8 17.4201 4.8 17.4101 4.76L17.3901 4.73Z" fill="#FDF4E2"/>
<path d="M21.1499 1.98C21.1099 1.7 21.1899 1.54 21.4999 1.5C21.8099 1.45 21.9399 1.57 21.9899 1.85C22.0299 2.14 21.9399 2.29 21.6299 2.34C21.3199 2.39 21.1899 2.27 21.1499 1.98Z" fill="#FDF4E2"/>
</g>
<defs>
<clipPath id="clip0_496_1983">
<rect width="50.43" height="50.4" fill="white"/>
</clipPath>
</defs>
</svg>
