<svg width="114" height="40" viewBox="0 0 114 40" fill="none" xmlns="http://www.w3.org/2000/svg">
<g clip-path="url(#clip0_680_1532)">
<path d="M37.5332 15.7845C37.5332 11.556 39.09 8.88889 43.7649 8.88889C48.4397 8.88889 49.9767 11.556 49.9767 15.7845C49.9767 20.0131 48.4199 22.6802 43.7649 22.6802C39.1098 22.6802 37.5332 20.0131 37.5332 15.7845ZM47.2639 15.7845C47.2639 12.2277 46.0902 11.1569 43.7627 11.1569C41.4352 11.1569 40.2615 12.2277 40.2615 15.7845C40.2615 19.3414 41.4153 20.4122 43.7627 20.4122C46.11 20.4122 47.2639 19.3414 47.2639 15.7845Z" fill="#D44428"/>
<path d="M52.7051 17.6731C52.7051 15.078 53.6035 12.7358 56.6268 12.7358C58.111 12.7358 58.7166 13.4075 58.972 13.7891H59.1548V9.41446C59.1548 9.26834 59.2472 9.17893 59.3926 9.17893H61.5175C61.665 9.17893 61.7751 9.27052 61.7751 9.41446V22.1546C61.7751 22.3007 61.665 22.3901 61.5175 22.3901H59.9783C59.8308 22.3901 59.7405 22.3182 59.7031 22.1721L59.5203 21.3739H59.0447C58.5316 22.1721 57.7257 22.5711 56.4617 22.5711C53.7863 22.5711 52.7051 20.6302 52.7051 17.6709V17.6731ZM59.1548 18.3273V15.9132C58.6417 15.0954 58.0736 14.7879 57.2126 14.7879C55.9288 14.7879 55.3805 15.6232 55.3805 17.6731C55.3805 19.723 55.931 20.5408 57.25 20.5408C58.569 20.5408 59.157 19.7252 59.157 18.3273H59.1548Z" fill="#D44428"/>
<path d="M64.7808 17.6535C64.7808 14.4782 66.5578 12.7358 69.2883 12.7358C72.0188 12.7358 73.6306 14.3518 73.6306 17.5095V18.3077C73.6306 18.4713 73.5381 18.5629 73.3928 18.5629H67.4738C67.6566 20.0502 68.8479 20.5408 70.3695 20.5408C71.2304 20.5408 72.3843 20.4318 72.9172 20.3228C73.0823 20.2857 73.1748 20.3773 73.1748 20.5408V22.0281C73.1748 22.1546 73.1572 22.2462 72.992 22.2833C72.4966 22.4098 71.3427 22.6104 70.0413 22.6104C66.7802 22.6104 64.783 21.1035 64.783 17.6557L64.7808 17.6535ZM71.0653 16.7637C70.9728 15.3113 70.4972 14.7487 69.3235 14.7487C68.1498 14.7487 67.509 15.3113 67.4364 16.7637H71.0653Z" fill="#D44428"/>
<path d="M76.8941 22.1546V13.1894C76.8941 13.0433 77.0042 12.9539 77.1517 12.9539H78.7085C78.856 12.9539 78.9463 13.0258 78.9838 13.172L79.1665 13.9701H79.6422C80.2829 13.1894 81.2188 12.7358 82.5928 12.7358C84.48 12.7358 85.799 13.7695 85.799 16.2207V22.1546C85.799 22.3007 85.6889 22.3901 85.5413 22.3901H83.3966C83.249 22.3901 83.1588 22.2986 83.1588 22.1546V16.8728C83.1588 15.1303 82.4629 14.7683 81.4544 14.7683C80.3908 14.7683 79.5299 15.3309 79.5299 16.8728V22.1546C79.5299 22.3007 79.4374 22.3901 79.292 22.3901H77.1473C76.9998 22.3901 76.8896 22.2986 76.8896 22.1546H76.8941Z" fill="#D44428"/>
<path d="M89.0777 22.3727C88.9302 22.3553 88.8399 22.2462 88.8399 22.1175V20.6106C88.8399 20.4471 88.95 20.3751 89.1151 20.3925C89.7009 20.4841 91.1674 20.6281 92.3587 20.6281C93.55 20.6281 94.0256 20.3555 94.0256 19.6663C94.0256 19.0492 93.4575 18.8137 92.3036 18.613C90.324 18.2859 88.8223 17.7233 88.8223 15.5817C88.8223 13.5667 90.3439 12.7314 92.7066 12.7314C94.0807 12.7314 95.2719 12.895 95.7498 12.967C95.9149 12.9844 95.9876 13.076 95.9876 13.2221V14.7094C95.9876 14.873 95.8775 14.9646 95.7123 14.9449C95.1068 14.873 93.5676 14.7094 92.5415 14.7094C91.5153 14.7094 91.2026 15.054 91.2026 15.5795C91.2026 16.1051 91.643 16.3973 92.7418 16.5783C94.4638 16.8858 96.461 17.2871 96.461 19.5355C96.461 21.6051 95.0319 22.6017 92.3389 22.6017C90.8921 22.6017 89.5709 22.4207 89.0777 22.3662V22.3727Z" fill="#D44428"/>
<path d="M98.7908 17.6535C98.7908 14.4782 100.568 12.7358 103.298 12.7358C106.029 12.7358 107.641 14.3518 107.641 17.5095V18.3077C107.641 18.4713 107.548 18.5629 107.403 18.5629H101.484C101.667 20.0502 102.858 20.5408 104.379 20.5408C105.24 20.5408 106.396 20.4318 106.927 20.3228C107.092 20.2857 107.185 20.3773 107.185 20.5408V22.0281C107.185 22.1546 107.167 22.2462 107.002 22.2833C106.507 22.4098 105.353 22.6104 104.051 22.6104C100.79 22.6104 98.793 21.1035 98.793 17.6557L98.7908 17.6535ZM105.075 16.7637C104.983 15.3113 104.507 14.7487 103.334 14.7487C102.16 14.7487 101.519 15.3113 101.446 16.7637H105.075Z" fill="#D44428"/>
<path d="M38.394 39.5464V26.8062C38.394 26.6601 38.5041 26.5707 38.6517 26.5707H40.814C40.9616 26.5707 41.0519 26.6623 41.0519 26.8062V37.5859H47.1911C47.3386 37.5859 47.4289 37.6775 47.4289 37.8214V39.5464C47.4289 39.6925 47.3364 39.7819 47.1911 39.7819H38.6517C38.5041 39.7819 38.394 39.6903 38.394 39.5464Z" fill="#D44428"/>
<path d="M49.1511 35.0453C49.1511 31.87 50.9281 30.1276 53.6586 30.1276C56.3891 30.1276 58.001 31.7435 58.001 34.9013V35.6995C58.001 35.863 57.9085 35.9546 57.7632 35.9546H51.8442C52.0269 37.4419 53.2182 37.9326 54.7398 37.9326C55.6008 37.9326 56.7546 37.8236 57.2875 37.7145C57.4527 37.6775 57.5452 37.7691 57.5452 37.9326V39.4199C57.5452 39.5464 57.5275 39.638 57.3624 39.6751C56.8669 39.8015 55.7131 40.0022 54.4117 40.0022C51.1505 40.0022 49.1533 38.4953 49.1533 35.0474L49.1511 35.0453ZM55.4356 34.1555C55.3432 32.7031 54.8675 32.1404 53.6939 32.1404C52.5202 32.1404 51.8794 32.7031 51.8067 34.1555H55.4356Z" fill="#D44428"/>
<path d="M61.7023 36.9687V32.195L60.1455 32.014C59.998 31.9965 59.9253 31.9049 59.9253 31.7588V30.579C59.9253 30.4329 60.0178 30.3435 60.1631 30.3435H61.7574L62.3981 28.42C62.4356 28.2935 62.5259 28.2194 62.6734 28.2194H63.9748C64.1223 28.2194 64.2126 28.311 64.2126 28.4549V30.3435H66.4124C66.5599 30.3435 66.6502 30.4351 66.6502 30.579V31.9573C66.6502 32.1034 66.5577 32.1928 66.4124 32.1928H64.2126V36.622C64.2126 37.4921 64.4504 37.9283 65.3114 37.9283C65.787 37.9283 66.0997 37.8563 66.3199 37.8367C66.5027 37.8192 66.5952 37.8912 66.5952 38.0547V39.542C66.5952 39.6685 66.5577 39.7427 66.43 39.7776C66.3023 39.8146 65.6241 39.9956 64.6706 39.9956C62.6734 39.9956 61.7023 38.9619 61.7023 36.9643V36.9687Z" fill="#D44428"/>
<path d="M72.5693 38.9489H72.3866L72.239 39.566C72.2214 39.7121 72.1113 39.7841 71.9638 39.7841H70.1141C69.9665 39.7841 69.8564 39.6925 69.8564 39.5486L69.8741 26.8084C69.8741 26.6623 69.9665 26.5729 70.1119 26.5729H72.2566C72.4042 26.5729 72.4945 26.6645 72.4945 26.8084V31.1286H72.9701C73.4832 30.5485 74.1614 30.1298 75.3703 30.1298C77.973 30.1298 78.9441 32.1623 78.9441 35.0671C78.9441 37.7167 77.9004 39.9673 75.0224 39.9673C73.6483 39.9673 72.915 39.4046 72.5671 38.951L72.5693 38.9489ZM76.2709 35.0649C76.2709 32.9953 75.7204 32.1601 74.4014 32.1601C73.0824 32.1601 72.4967 32.9779 72.4967 34.319V36.8051C73.0097 37.6404 73.5778 37.9479 74.4388 37.9479C75.7226 37.9479 76.2709 37.0952 76.2709 35.0627V35.0649Z" fill="#D44428"/>
<path d="M81.3818 37.0974C81.3818 34.6113 83.4165 33.8306 85.8893 33.8306C86.66 33.8306 87.3184 33.8676 87.3184 33.8676V33.5601C87.3184 32.7423 87.2083 32.1077 85.3212 32.1077C84.3678 32.1077 83.4341 32.2168 82.5357 32.3258C82.3705 32.3433 82.2604 32.2538 82.2604 32.0903V30.603C82.2604 30.4569 82.3529 30.3675 82.4983 30.3478C83.5244 30.2017 84.6606 30.1298 85.6868 30.1298C88.2345 30.1298 89.8838 30.7469 89.8838 33.6321V39.5486C89.8838 39.6947 89.7737 39.7841 89.6261 39.7841H88.142C87.9945 39.7841 87.9042 39.7121 87.8667 39.566L87.684 38.7679H87.2083C86.7327 39.457 85.962 39.9651 84.5505 39.9651C82.5533 39.9651 81.3796 38.8398 81.3796 37.0974H81.3818ZM87.3184 36.0441V35.645C87.226 35.645 86.6226 35.6275 86.1095 35.6275C84.6628 35.6275 84.0022 35.9176 84.0022 36.8248C84.0022 37.4965 84.3876 37.9501 85.3587 37.9501C86.66 37.9501 87.3206 37.1868 87.3206 36.0441H87.3184Z" fill="#D44428"/>
<path d="M93.4024 39.5464V30.5812C93.4024 30.4351 93.5125 30.3457 93.66 30.3457H95.2168C95.3643 30.3457 95.4546 30.4176 95.4921 30.5637L95.6748 31.3619H96.1505C96.7912 30.5812 97.7271 30.1276 99.1011 30.1276C100.988 30.1276 102.307 31.1613 102.307 33.6125V39.5464C102.307 39.6925 102.197 39.7819 102.05 39.7819H99.9049C99.7573 39.7819 99.6671 39.6903 99.6671 39.5464V34.2645C99.6671 32.5221 98.9712 32.1601 97.9627 32.1601C96.8991 32.1601 96.0382 32.7227 96.0382 34.2645V39.5464C96.0382 39.6925 95.9457 39.7819 95.8003 39.7819H93.6556C93.5081 39.7819 93.3979 39.6903 93.3979 39.5464H93.4024Z" fill="#D44428"/>
<path d="M105.148 35.0453C105.148 31.87 106.925 30.1276 109.655 30.1276C112.386 30.1276 113.998 31.7435 113.998 34.9013V35.6995C113.998 35.863 113.905 35.9546 113.76 35.9546H107.841C108.024 37.4419 109.215 37.9326 110.737 37.9326C111.598 37.9326 112.754 37.8236 113.284 37.7145C113.45 37.6775 113.542 37.7691 113.542 37.9326V39.4199C113.542 39.5464 113.524 39.638 113.359 39.6751C112.864 39.8015 111.71 40.0022 110.409 40.0022C107.147 40.0022 105.15 38.4953 105.15 35.0474L105.148 35.0453ZM111.432 34.1555C111.34 32.7031 110.864 32.1404 109.691 32.1404C108.517 32.1404 107.876 32.7031 107.804 34.1555H111.432Z" fill="#D44428"/>
<path d="M2.5235 3.97558C0.77951 6.30248 0 9.75466 0 15.1652C0 20.5757 0.77951 24.0279 2.5235 26.3548C4.55815 29.0677 7.96465 30.3304 13.2407 30.3304C18.5189 30.3304 21.9232 29.0655 23.9578 26.3548C25.704 24.0279 26.4813 20.5757 26.4813 15.1652C26.4813 9.75466 25.7018 6.30248 23.9578 3.97558C21.9254 1.26486 18.5211 0 13.2429 0C7.96465 0 4.55815 1.26486 2.5235 3.97558ZM6.86585 6.44641C8.07255 4.98964 9.92003 4.39429 13.2407 4.38992C16.5613 4.39211 18.4088 4.98746 19.6155 6.44641C20.9235 8.0253 21.4806 10.6335 21.4806 15.1652C21.4806 19.6969 20.9235 22.3051 19.6155 23.884C18.4088 25.3407 16.5613 25.9361 13.2407 25.9405C9.92003 25.9383 8.07475 25.3429 6.86585 23.884C5.55786 22.3051 5.00075 19.6969 5.00075 15.1652C5.00075 10.6335 5.55786 8.0253 6.86585 6.44641Z" fill="#D44428"/>
<path d="M26.0169 39.7819C26.1292 39.7819 26.2194 39.6925 26.2194 39.5813V35.5926C26.2194 35.5403 26.1974 35.488 26.16 35.4509C26.1225 35.4138 26.0697 35.392 26.0169 35.392H0.466989C0.354686 35.392 0.264404 35.4814 0.264404 35.5926V39.5791C0.264404 39.6315 0.286424 39.6838 0.323858 39.7209C0.361293 39.7579 0.414141 39.7797 0.466989 39.7797H26.0169V39.7819Z" fill="#D44428"/>
</g>
<defs>
<clipPath id="clip0_680_1532">
<rect width="114" height="40" fill="white"/>
</clipPath>
</defs>
</svg>
